<svg width="32" height="28" viewBox="0 0 32 28" fill="none" xmlns="http://www.w3.org/2000/svg">
<path fill-rule="evenodd" clip-rule="evenodd" d="M15.6675 7.7687C15.4446 7.58612 15.412 7.25732 15.5948 7.03449C15.6403 6.9776 16.7378 5.57763 15.591 4.14421C14.2269 2.43972 15.0166 0.811325 15.625 0.188363C15.8268 -0.0178187 16.1566 -0.0213853 16.3628 0.179532C16.5683 0.380109 16.573 0.708914 16.3736 0.915266C16.2585 1.0367 15.3057 2.11771 16.4056 3.49237C17.7503 5.17291 16.9912 6.97675 16.4018 7.69584C16.2986 7.82169 16.1491 7.8869 15.998 7.8869C15.8818 7.8869 15.7646 7.84818 15.6675 7.7687ZM31.3594 19.7075C31.3594 18.0774 29.1743 16.6807 25.2062 15.7745C25.1535 15.7621 25.1013 15.7608 25.05 15.7647C23.9359 14.1265 22.2151 12.8491 19.8109 12.7143C19.7448 12.586 19.6738 12.4608 19.5924 12.3426C18.966 11.4322 17.9738 10.9587 16.6489 10.9246C16.013 10.3979 15.0964 10 13.7721 10C11.6823 10 10.74 11.4955 10.4601 12.0556C8.96601 12.7206 7.62464 13.9973 6.61394 15.6734C4.07301 16.211 0 17.4283 0 19.7075C0 21.0465 1.43916 22.1244 3.66979 22.9247C3.99811 23.7619 5.99943 27.4134 15.9168 27.4134C25.7068 27.4134 27.4236 23.8452 27.7043 22.9194C29.9266 22.1197 31.3594 21.0436 31.3594 19.7075ZM11.3967 12.8077C12.3321 12.5062 13.2071 12.5519 13.9194 12.9198C12.172 13.2673 9.02679 14.5508 7.81963 19.2687C7.7483 19.5479 7.91644 19.8322 8.19565 19.9035C8.23913 19.9147 8.28261 19.9198 8.32541 19.9198C8.55808 19.9198 8.77004 19.7632 8.8305 19.5275C10.1355 14.4271 13.8209 13.8889 14.8342 13.8384C15.0004 14.2388 15.0199 14.7113 14.9423 15.2127C13.8453 15.1565 11.6515 15.5888 10.4562 19.5669C10.3733 19.8427 10.5296 20.1338 10.8057 20.2167C10.8556 20.2317 10.9062 20.2388 10.9562 20.2388C11.1804 20.2388 11.3876 20.0931 11.4555 19.8672C12.3597 16.8582 13.7775 16.28 14.6729 16.2495C14.0739 17.9528 12.828 19.6257 12.8064 19.6539C12.6315 19.8825 12.6749 20.2099 12.9039 20.3852C12.9983 20.4575 13.1101 20.4925 13.2204 20.4925C13.3774 20.4925 13.5323 20.4222 13.6352 20.288C13.8101 20.0591 17.894 14.6562 14.9905 12.3672C14.2004 11.7443 13.2212 11.4782 12.1608 11.5841C12.5389 11.2876 13.063 11.0435 13.7721 11.0435C15.18 11.0435 16.1664 11.5814 16.7035 12.6423C17.6128 14.4382 17.0591 17.4806 15.4158 19.7187C15.2452 19.9511 15.2952 20.2775 15.5275 20.448C15.6206 20.5163 15.7286 20.5493 15.8359 20.5493C15.9963 20.5493 16.1546 20.4755 16.2568 20.3363C18.1471 17.7619 18.7266 14.3278 17.6345 12.1709C17.6294 12.1607 17.6238 12.1505 17.6181 12.1402L17.6127 12.1303L17.6055 12.1169C18.0876 12.2711 18.4617 12.5404 18.7323 12.9334C19.9202 14.6579 18.8937 18.4083 18.3978 19.7079C18.2952 19.9769 18.43 20.2785 18.699 20.3815C18.7602 20.4046 18.8234 20.4158 18.8852 20.4158C19.0951 20.4158 19.2931 20.288 19.3726 20.0805C19.4086 19.9862 19.8016 18.9405 20.0725 17.5873C20.4904 17.8669 21.0713 18.4718 21.3176 19.7459C21.3658 19.9956 21.5842 20.1688 21.8291 20.1688C21.8621 20.1688 21.8954 20.1658 21.9287 20.1593C22.2116 20.1046 22.3967 19.8308 22.3421 19.5482C21.9586 17.564 20.8638 16.7858 20.2487 16.4974C20.2809 16.2301 20.3039 15.958 20.3169 15.685C21.024 15.749 22.6792 16.243 23.3512 19.3624C23.4042 19.607 23.6202 19.7741 23.8607 19.7741C23.8974 19.7741 23.9344 19.7704 23.9715 19.7626C24.2531 19.7018 24.4321 19.4243 24.3716 19.1423C23.5449 15.3076 21.2916 14.7179 20.3074 14.6479C20.2861 14.3566 20.2467 14.0706 20.1872 13.7936C21.608 13.9935 24.3319 14.9191 25.3652 18.9973C25.4249 19.2337 25.6376 19.391 25.8706 19.391C25.913 19.391 25.9562 19.3859 25.999 19.375C26.2785 19.3043 26.4474 19.0204 26.3767 18.7412C26.3713 18.7199 26.365 18.6986 26.3587 18.6773L26.3587 18.6772L26.3586 18.6771C26.3534 18.6592 26.3481 18.6414 26.3433 18.6236C27.0702 18.9055 27.2397 19.1247 27.2719 19.1664C27.2756 19.1711 27.2775 19.1736 27.2782 19.1736C27.0853 19.8064 23.0302 20.9861 15.9589 20.9861C8.88485 20.9861 4.82948 19.8057 4.63927 19.1953C4.64001 19.1928 4.71501 19.0088 5.27978 18.7482C5.27788 18.7548 5.2758 18.7612 5.27371 18.7676L5.2737 18.7676L5.2737 18.7676C5.2715 18.7744 5.2693 18.7811 5.26732 18.788C5.18818 19.0649 5.34817 19.3539 5.62534 19.4334C5.90149 19.5122 6.1909 19.3522 6.27072 19.0754C7.34477 15.3271 9.62296 13.3799 11.3967 12.8077ZM5.21915 23.4041C6.2587 24.5487 8.99953 26.3699 15.9168 26.3699C22.95 26.3699 25.4344 24.4854 26.2905 23.3643C23.3303 24.1757 19.4471 24.5971 15.6797 24.5971C11.9752 24.5971 8.15999 24.189 5.21915 23.4041ZM15.6797 23.5537C7.05435 23.5537 1.04348 21.5268 1.04348 19.7075C1.04348 18.9357 2.36122 17.7755 5.96845 16.892C5.88215 17.08 5.80012 17.272 5.72172 17.467C4.79592 17.7603 3.59715 18.2555 3.59715 19.1841C3.59715 21.4304 11.3675 22.0296 15.9589 22.0296C20.5503 22.0296 28.3207 21.4304 28.3207 19.1841C28.3207 18.2143 27.0078 17.7086 26.0204 17.4127C25.9887 17.4033 25.9569 17.3978 25.9252 17.3945C25.8676 17.2555 25.8072 17.1175 25.7425 16.9802C29.0986 17.8585 30.3159 18.9786 30.3159 19.7075C30.3159 21.5268 24.305 23.5537 15.6797 23.5537ZM10.3594 7.85514C10.1766 8.07814 10.2092 8.40677 10.4324 8.58935C10.5292 8.66883 10.6464 8.70755 10.7626 8.70755C10.9137 8.70755 11.0635 8.64234 11.1664 8.51649C11.5628 8.03262 12.0737 6.81914 11.1702 5.68972C10.6216 5.00392 11.0472 4.47844 11.1399 4.37824C11.3376 4.17172 11.3322 3.84427 11.1274 3.64421C10.9212 3.44312 10.591 3.44686 10.3896 3.65304C9.97418 4.07848 9.4324 5.18802 10.3556 6.34156C10.9423 7.07508 10.4181 7.78058 10.3594 7.85514ZM21.4463 8.58935C21.2235 8.40677 21.1909 8.07797 21.3736 7.85514C21.4327 7.78042 21.9569 7.07508 21.3699 6.34173C20.4467 5.18802 20.9885 4.07848 21.4039 3.65304C21.6053 3.44686 21.9355 3.44312 22.1416 3.64421C22.3465 3.84427 22.3519 4.17172 22.1542 4.37824C22.0615 4.47844 21.6359 5.00392 22.1844 5.68972C23.0883 6.81914 22.5774 8.03262 22.1807 8.51649C22.0774 8.64234 21.9276 8.70755 21.7768 8.70755C21.6607 8.70755 21.5435 8.66883 21.4463 8.58935Z" fill="white"/>
</svg>
